<svg xmlns="http://www.w3.org/2000/svg" style="display:none">
  <symbol id="icon-arrow-right" viewBox="0 0 24 24">
    <path d="M13 5l7 7-7 7M5 12h14" fill="none" stroke="currentColor" stroke-width="2" stroke-linecap="round" stroke-linejoin="round"></path>
  </symbol>
  <symbol id="icon-check" viewBox="0 0 24 24">
    <path d="M20 6L9 17l-5-5" fill="none" stroke="currentColor" stroke-width="2" stroke-linecap="round" stroke-linejoin="round"></path>
  </symbol>
  <symbol id="icon-whatsapp" viewBox="0 0 24 24">
    <path d="M20.5 3.5a10 10 0 0 1-13.4 14.7L3 21l2.9-4.1A10 10 0 1 1 20.5 3.5Z" fill="none" stroke="currentColor" stroke-width="1.6"></path>
    <path d="M8.5 8.7c.2 3 2.1 4.8 4.7 5.6.8.2 1.6-.1 2.1-.8l.6-.9-2.2-1.1-1 1.2c-1-.2-2.1-1.2-2.5-2.3l1.1-1-1.2-2.1-.9.4c-.7.3-1 .9-.7 1.7Z" fill="currentColor"></path>
  </symbol>
</svg>
