<!--?xml version="1.0" encoding="UTF-8"?-->
<svg xmlns="http://www.w3.org/2000/svg" viewBox="0 0 1200 800">
  <defs>
    <filter id="glow">
      <feGaussianBlur stdDeviation="3" result="coloredBlur"></feGaussianBlur>
      <feMerge>
        <feMergeNode in="coloredBlur"></feMergeNode>
        <feMergeNode in="SourceGraphic"></feMergeNode>
      </feMerge>
    </filter>
  </defs>

  <!-- Pontos da rede neural -->
  <circle cx="150" cy="200" r="4" fill="#ffffff" fill-opacity="0.6" filter="url(#glow)"></circle>
  <circle cx="300" cy="150" r="3" fill="#ffffff" fill-opacity="0.5" filter="url(#glow)"></circle>
  <circle cx="450" cy="250" r="5" fill="#ffffff" fill-opacity="0.7" filter="url(#glow)"></circle>
  <circle cx="600" cy="180" r="3" fill="#ffffff" fill-opacity="0.4" filter="url(#glow)"></circle>
  <circle cx="750" cy="220" r="4" fill="#ffffff" fill-opacity="0.6" filter="url(#glow)"></circle>
  <circle cx="900" cy="160" r="3" fill="#ffffff" fill-opacity="0.5" filter="url(#glow)"></circle>
  <circle cx="1050" cy="210" r="4" fill="#ffffff" fill-opacity="0.6" filter="url(#glow)"></circle>
  <circle cx="120" cy="400" r="3" fill="#ffffff" fill-opacity="0.5" filter="url(#glow)"></circle>
  <circle cx="280" cy="380" r="4" fill="#ffffff" fill-opacity="0.6" filter="url(#glow)"></circle>
  <circle cx="420" cy="450" r="3" fill="#ffffff" fill-opacity="0.4" filter="url(#glow)"></circle>
  <circle cx="580" cy="420" r="5" fill="#ffffff" fill-opacity="0.7" filter="url(#glow)"></circle>
  <circle cx="720" cy="460" r="3" fill="#ffffff" fill-opacity="0.5" filter="url(#glow)"></circle>
  <circle cx="880" cy="390" r="4" fill="#ffffff" fill-opacity="0.6" filter="url(#glow)"></circle>
  <circle cx="1020" cy="440" r="3" fill="#ffffff" fill-opacity="0.5" filter="url(#glow)"></circle>
  <circle cx="180" cy="600" r="4" fill="#ffffff" fill-opacity="0.6" filter="url(#glow)"></circle>
  <circle cx="340" cy="580" r="3" fill="#ffffff" fill-opacity="0.4" filter="url(#glow)"></circle>
  <circle cx="480" cy="650" r="4" fill="#ffffff" fill-opacity="0.6" filter="url(#glow)"></circle>
  <circle cx="640" cy="620" r="3" fill="#ffffff" fill-opacity="0.5" filter="url(#glow)"></circle>
  <circle cx="800" cy="660" r="5" fill="#ffffff" fill-opacity="0.7" filter="url(#glow)"></circle>
  <circle cx="960" cy="590" r="3" fill="#ffffff" fill-opacity="0.4" filter="url(#glow)"></circle>

  <!-- Conexões -->
  <g stroke="#ffffff" stroke-width="1">
    <line x1="150" y1="200" x2="300" y2="150" stroke-opacity="0.15"></line>
    <line x1="300" y1="150" x2="450" y2="250" stroke-opacity="0.12"></line>
    <line x1="450" y1="250" x2="600" y2="180" stroke-opacity="0.10"></line>
    <line x1="600" y1="180" x2="750" y2="220" stroke-opacity="0.15"></line>
    <line x1="750" y1="220" x2="900" y2="160" stroke-opacity="0.12"></line>
    <line x1="900" y1="160" x2="1050" y2="210" stroke-opacity="0.10"></line>
    <line x1="150" y1="200" x2="120" y2="400" stroke-opacity="0.08"></line>
    <line x1="300" y1="150" x2="280" y2="380" stroke-opacity="0.10"></line>
    <line x1="450" y1="250" x2="420" y2="450" stroke-opacity="0.12"></line>
    <line x1="600" y1="180" x2="580" y2="420" stroke-opacity="0.15"></line>
    <line x1="750" y1="220" x2="720" y2="460" stroke-opacity="0.10"></line>
    <line x1="900" y1="160" x2="880" y2="390" stroke-opacity="0.12"></line>
    <line x1="1050" y1="210" x2="1020" y2="440" stroke-opacity="0.08"></line>
    <line x1="120" y1="400" x2="280" y2="380" stroke-opacity="0.10"></line>
    <line x1="280" y1="380" x2="420" y2="450" stroke-opacity="0.12"></line>
    <line x1="420" y1="450" x2="580" y2="420" stroke-opacity="0.15"></line>
    <line x1="580" y1="420" x2="720" y2="460" stroke-opacity="0.10"></line>
    <line x1="720" y1="460" x2="880" y2="390" stroke-opacity="0.12"></line>
    <line x1="880" y1="390" x2="1020" y2="440" stroke-opacity="0.08"></line>
    <line x1="180" y1="600" x2="340" y2="580" stroke-opacity="0.10"></line>
    <line x1="340" y1="580" x2="480" y2="650" stroke-opacity="0.12"></line>
    <line x1="480" y1="650" x2="640" y2="620" stroke-opacity="0.15"></line>
    <line x1="640" y1="620" x2="800" y2="660" stroke-opacity="0.10"></line>
    <line x1="800" y1="660" x2="960" y2="590" stroke-opacity="0.08"></line>
    <!-- diagonais suaves -->
    <line x1="300" y1="150" x2="580" y2="420" stroke-opacity="0.06"></line>
    <line x1="450" y1="250" x2="720" y2="460" stroke-opacity="0.08"></line>
    <line x1="600" y1="180" x2="880" y2="390" stroke-opacity="0.06"></line>
    <line x1="150" y1="200" x2="480" y2="650" stroke-opacity="0.05"></line>
    <line x1="750" y1="220" x2="340" y2="580" stroke-opacity="0.05"></line>
  </g>
</svg>
